<svg width="76" height="24" viewBox="0 0 76 24" fill="none" xmlns="http://www.w3.org/2000/svg">
<rect width="76" height="24" rx="4" fill="#2A3647"/>
<path d="M4.63636 16.8C4.18636 16.8 3.80114 16.6433 3.48068 16.33C3.16023 16.0167 3 15.64 3 15.2V5.6C3 5.16 3.16023 4.78333 3.48068 4.47C3.80114 4.15667 4.18636 4 4.63636 4H17.7273C18.1773 4 18.5625 4.15667 18.883 4.47C19.2034 4.78333 19.3636 5.16 19.3636 5.6V8.8C19.3636 9.02667 19.2852 9.21667 19.1284 9.37C18.9716 9.52333 18.7773 9.6 18.5455 9.6C18.3136 9.6 18.1193 9.52333 17.9625 9.37C17.8057 9.21667 17.7273 9.02667 17.7273 8.8V7.2L11.6114 10.94C11.5432 10.98 11.4716 11.01 11.3966 11.03C11.3216 11.05 11.25 11.06 11.1818 11.06C11.1136 11.06 11.042 11.05 10.967 11.03C10.892 11.01 10.8205 10.98 10.7523 10.94L4.63636 7.2V15.2H12C12.2318 15.2 12.4261 15.2767 12.583 15.43C12.7398 15.5833 12.8182 15.7733 12.8182 16C12.8182 16.2267 12.7398 16.4167 12.583 16.57C12.4261 16.7233 12.2318 16.8 12 16.8H4.63636ZM11.1818 9.6L17.7273 5.6H4.63636L11.1818 9.6ZM17.7273 20C16.8273 20 16.0568 19.6867 15.4159 19.06C14.775 18.4333 14.4545 17.68 14.4545 16.8V13.2C14.4545 12.64 14.6523 12.1667 15.0477 11.78C15.4432 11.3933 15.9273 11.2 16.5 11.2C17.0727 11.2 17.5568 11.3933 17.9523 11.78C18.3477 12.1667 18.5455 12.64 18.5455 13.2V16C18.5455 16.2267 18.467 16.4167 18.3102 16.57C18.1534 16.7233 17.9591 16.8 17.7273 16.8C17.4955 16.8 17.3011 16.7233 17.1443 16.57C16.9875 16.4167 16.9091 16.2267 16.9091 16V13.2C16.9091 13.0933 16.8682 13 16.7864 12.92C16.7045 12.84 16.6091 12.8 16.5 12.8C16.3909 12.8 16.2955 12.84 16.2136 12.92C16.1318 13 16.0909 13.0933 16.0909 13.2V16.8C16.0909 17.24 16.2511 17.6167 16.5716 17.93C16.892 18.2433 17.2773 18.4 17.7273 18.4C18.1773 18.4 18.5625 18.2433 18.883 17.93C19.2034 17.6167 19.3636 17.24 19.3636 16.8V14.4C19.3636 14.1733 19.442 13.9833 19.5989 13.83C19.7557 13.6767 19.95 13.6 20.1818 13.6C20.4136 13.6 20.608 13.6767 20.7648 13.83C20.9216 13.9833 21 14.1733 21 14.4V16.8C21 17.68 20.6795 18.4333 20.0386 19.06C19.3977 19.6867 18.6273 20 17.7273 20Z" fill="#29ABE2"/>
<path d="M26.4091 17.5V5.86364H33.4318V7.11364H27.8182V11.0455H33.0682V12.2955H27.8182V16.25H33.5227V17.5H26.4091ZM40.7898 11.8864V13.1364H35.6989V11.8864H40.7898ZM43.1491 17.5V8.77273H44.4446V10.1364H44.5582C44.7401 9.67045 45.0336 9.30871 45.4389 9.05114C45.8442 8.78977 46.331 8.65909 46.8991 8.65909C47.4749 8.65909 47.9541 8.78977 48.3366 9.05114C48.723 9.30871 49.0241 9.67045 49.2401 10.1364H49.331C49.5545 9.68561 49.8897 9.32765 50.3366 9.0625C50.7836 8.79356 51.3196 8.65909 51.9446 8.65909C52.7249 8.65909 53.3632 8.90341 53.8594 9.39205C54.3556 9.87689 54.6037 10.6326 54.6037 11.6591V17.5H53.2628V11.6591C53.2628 11.0152 53.0866 10.5549 52.7344 10.2784C52.3821 10.0019 51.9673 9.86364 51.4901 9.86364C50.8764 9.86364 50.401 10.0492 50.0639 10.4205C49.7268 10.7879 49.5582 11.2538 49.5582 11.8182V17.5H48.1946V11.5227C48.1946 11.0265 48.0336 10.6269 47.7116 10.3239C47.3897 10.017 46.9749 9.86364 46.4673 9.86364C46.1188 9.86364 45.7931 9.95644 45.4901 10.142C45.1908 10.3277 44.9484 10.5852 44.7628 10.9148C44.581 11.2405 44.4901 11.6174 44.4901 12.0455V17.5H43.1491ZM59.6236 17.7045C59.0705 17.7045 58.5687 17.6004 58.1179 17.392C57.6671 17.1799 57.3092 16.875 57.044 16.4773C56.7789 16.0758 56.6463 15.5909 56.6463 15.0227C56.6463 14.5227 56.7448 14.1174 56.9418 13.8068C57.1387 13.4924 57.402 13.2462 57.7315 13.0682C58.0611 12.8902 58.4247 12.7576 58.8224 12.6705C59.224 12.5795 59.6274 12.5076 60.0327 12.4545C60.563 12.3864 60.9929 12.3352 61.3224 12.3011C61.6558 12.2633 61.8982 12.2008 62.0497 12.1136C62.205 12.0265 62.2827 11.875 62.2827 11.6591V11.6136C62.2827 11.053 62.1293 10.6174 61.8224 10.3068C61.5194 9.99621 61.0592 9.84091 60.4418 9.84091C59.8016 9.84091 59.2997 9.98106 58.9361 10.2614C58.5724 10.5417 58.3168 10.8409 58.169 11.1591L56.8963 10.7045C57.1236 10.1742 57.4266 9.76136 57.8054 9.46591C58.188 9.16667 58.6046 8.95833 59.0554 8.84091C59.5099 8.7197 59.9569 8.65909 60.3963 8.65909C60.6766 8.65909 60.9986 8.69318 61.3622 8.76136C61.7296 8.82576 62.0838 8.96023 62.4247 9.16477C62.7694 9.36932 63.0554 9.67803 63.2827 10.0909C63.5099 10.5038 63.6236 11.0568 63.6236 11.75V17.5H62.2827V16.3182H62.2145C62.1236 16.5076 61.9721 16.7102 61.7599 16.9261C61.5478 17.142 61.2656 17.3258 60.9134 17.4773C60.5611 17.6288 60.1312 17.7045 59.6236 17.7045ZM59.8281 16.5C60.3584 16.5 60.8054 16.3958 61.169 16.1875C61.5365 15.9792 61.813 15.7102 61.9986 15.3807C62.188 15.0511 62.2827 14.7045 62.2827 14.3409V13.1136C62.2259 13.1818 62.1009 13.2443 61.9077 13.3011C61.7183 13.3542 61.4986 13.4015 61.2486 13.4432C61.0024 13.4811 60.7618 13.5152 60.527 13.5455C60.2959 13.572 60.1084 13.5947 59.9645 13.6136C59.616 13.6591 59.2902 13.733 58.9872 13.8352C58.688 13.9337 58.4455 14.0833 58.2599 14.2841C58.0781 14.4811 57.9872 14.75 57.9872 15.0909C57.9872 15.5568 58.1596 15.9091 58.5043 16.1477C58.8527 16.3826 59.294 16.5 59.8281 16.5ZM66.071 17.5V8.77273H67.4119V17.5H66.071ZM66.7528 7.31818C66.4915 7.31818 66.2661 7.22917 66.0767 7.05114C65.8911 6.87311 65.7983 6.65909 65.7983 6.40909C65.7983 6.15909 65.8911 5.94508 66.0767 5.76705C66.2661 5.58902 66.4915 5.5 66.7528 5.5C67.0142 5.5 67.2377 5.58902 67.4233 5.76705C67.6127 5.94508 67.7074 6.15909 67.7074 6.40909C67.7074 6.65909 67.6127 6.87311 67.4233 7.05114C67.2377 7.22917 67.0142 7.31818 66.7528 7.31818ZM71.2088 5.86364V17.5H69.8679V5.86364H71.2088Z" fill="white"/>
</svg>
