<svg width="75" height="22" viewBox="0 0 75 22" fill="none" xmlns="http://www.w3.org/2000/svg">
<rect width="75" height="22" rx="4" fill="#EBFC88"/>
<path d="M11 18.0001C10.0433 18.0001 9.13917 17.8163 8.2875 17.4488C7.43583 17.0813 6.69208 16.5796 6.05625 15.9438C5.42042 15.308 4.91875 14.5642 4.55125 13.7126C4.18375 12.8609 4 11.9567 4 11.0001C4 10.0317 4.18375 9.12464 4.55125 8.27881C4.91875 7.43298 5.42042 6.69214 6.05625 6.05631C6.69208 5.42048 7.43583 4.91881 8.2875 4.55131C9.13917 4.18381 10.0433 4.00006 11 4.00006C11.9683 4.00006 12.8754 4.18381 13.7212 4.55131C14.5671 4.91881 15.3079 5.42048 15.9437 6.05631C16.5796 6.69214 17.0812 7.43298 17.4487 8.27881C17.8162 9.12464 18 10.0317 18 11.0001C18 11.9567 17.8162 12.8609 17.4487 13.7126C17.0812 14.5642 16.5796 15.308 15.9437 15.9438C15.3079 16.5796 14.5671 17.0813 13.7212 17.4488C12.8754 17.8163 11.9683 18.0001 11 18.0001ZM11 16.5651C11.3033 16.1451 11.5658 15.7076 11.7875 15.2526C12.0092 14.7976 12.19 14.3134 12.33 13.8001H9.67C9.81 14.3134 9.99083 14.7976 10.2125 15.2526C10.4342 15.7076 10.6967 16.1451 11 16.5651ZM9.18 16.2851C8.97 15.9001 8.78625 15.5005 8.62875 15.0863C8.47125 14.6721 8.34 14.2434 8.235 13.8001H6.17C6.50833 14.3834 6.93125 14.8909 7.43875 15.3226C7.94625 15.7542 8.52667 16.0751 9.18 16.2851ZM12.82 16.2851C13.4733 16.0751 14.0538 15.7542 14.5613 15.3226C15.0688 14.8909 15.4917 14.3834 15.83 13.8001H13.765C13.66 14.2434 13.5287 14.6721 13.3713 15.0863C13.2137 15.5005 13.03 15.9001 12.82 16.2851ZM5.575 12.4001H7.955C7.92 12.1667 7.89375 11.9363 7.87625 11.7088C7.85875 11.4813 7.85 11.2451 7.85 11.0001C7.85 10.7551 7.85875 10.5188 7.87625 10.2913C7.89375 10.0638 7.92 9.83339 7.955 9.60006H5.575C5.51667 9.83339 5.47292 10.0638 5.44375 10.2913C5.41458 10.5188 5.4 10.7551 5.4 11.0001C5.4 11.2451 5.41458 11.4813 5.44375 11.7088C5.47292 11.9363 5.51667 12.1667 5.575 12.4001ZM9.355 12.4001H12.645C12.68 12.1667 12.7063 11.9363 12.7238 11.7088C12.7413 11.4813 12.75 11.2451 12.75 11.0001C12.75 10.7551 12.7413 10.5188 12.7238 10.2913C12.7063 10.0638 12.68 9.83339 12.645 9.60006H9.355C9.32 9.83339 9.29375 10.0638 9.27625 10.2913C9.25875 10.5188 9.25 10.7551 9.25 11.0001C9.25 11.2451 9.25875 11.4813 9.27625 11.7088C9.29375 11.9363 9.32 12.1667 9.355 12.4001ZM14.045 12.4001H16.425C16.4833 12.1667 16.5271 11.9363 16.5562 11.7088C16.5854 11.4813 16.6 11.2451 16.6 11.0001C16.6 10.7551 16.5854 10.5188 16.5562 10.2913C16.5271 10.0638 16.4833 9.83339 16.425 9.60006H14.045C14.08 9.83339 14.1062 10.0638 14.1238 10.2913C14.1413 10.5188 14.15 10.7551 14.15 11.0001C14.15 11.2451 14.1413 11.4813 14.1238 11.7088C14.1062 11.9363 14.08 12.1667 14.045 12.4001ZM13.765 8.20006H15.83C15.4917 7.61673 15.0688 7.10923 14.5613 6.67756C14.0538 6.24589 13.4733 5.92506 12.82 5.71506C13.03 6.10006 13.2137 6.49964 13.3713 6.91381C13.5287 7.32798 13.66 7.75673 13.765 8.20006ZM9.67 8.20006H12.33C12.19 7.68673 12.0092 7.20256 11.7875 6.74756C11.5658 6.29256 11.3033 5.85506 11 5.43506C10.6967 5.85506 10.4342 6.29256 10.2125 6.74756C9.99083 7.20256 9.81 7.68673 9.67 8.20006ZM6.17 8.20006H8.235C8.34 7.75673 8.47125 7.32798 8.62875 6.91381C8.78625 6.49964 8.97 6.10006 9.18 5.71506C8.52667 5.92506 7.94625 6.24589 7.43875 6.67756C6.93125 7.10923 6.50833 7.61673 6.17 8.20006Z" fill="#0B3681"/>
<path d="M23.4091 16.5V4.86364H30.4318V6.11364H24.8182V10.0455H30.0682V11.2955H24.8182V15.25H30.5227V16.5H23.4091ZM33.7898 7.77273L35.8807 11.3409L37.9716 7.77273H39.517L36.6989 12.1364L39.517 16.5H37.9716L35.8807 13.1136L33.7898 16.5H32.2443L35.017 12.1364L32.2443 7.77273H33.7898ZM45.2259 7.77273V8.90909H40.7031V7.77273H45.2259ZM42.0213 5.68182H43.3622V14C43.3622 14.3788 43.4171 14.6629 43.527 14.8523C43.6406 15.0379 43.7846 15.1629 43.9588 15.2273C44.1368 15.2879 44.3243 15.3182 44.5213 15.3182C44.669 15.3182 44.7902 15.3106 44.8849 15.2955C44.9796 15.2765 45.0554 15.2614 45.1122 15.25L45.3849 16.4545C45.294 16.4886 45.1671 16.5227 45.0043 16.5568C44.8414 16.5947 44.6349 16.6136 44.3849 16.6136C44.0062 16.6136 43.6349 16.5322 43.2713 16.3693C42.9115 16.2064 42.6122 15.9583 42.3736 15.625C42.1387 15.2917 42.0213 14.8712 42.0213 14.3636V5.68182ZM50.8082 16.6818C49.9673 16.6818 49.242 16.4962 48.6321 16.125C48.026 15.75 47.5582 15.2273 47.2287 14.5568C46.9029 13.8826 46.7401 13.0985 46.7401 12.2045C46.7401 11.3106 46.9029 10.5227 47.2287 9.84091C47.5582 9.1553 48.0166 8.62121 48.6037 8.23864C49.1946 7.85227 49.884 7.65909 50.6719 7.65909C51.1264 7.65909 51.5753 7.73485 52.0185 7.88636C52.4616 8.03788 52.8651 8.28409 53.2287 8.625C53.5923 8.96212 53.8821 9.40909 54.098 9.96591C54.3139 10.5227 54.4219 11.2083 54.4219 12.0227V12.5909H47.6946V11.4318H53.0582C53.0582 10.9394 52.9598 10.5 52.7628 10.1136C52.5696 9.72727 52.2931 9.42235 51.9332 9.19886C51.5772 8.97538 51.1567 8.86364 50.6719 8.86364C50.1378 8.86364 49.6757 8.99621 49.2855 9.26136C48.8991 9.52273 48.6018 9.86364 48.3935 10.2841C48.1851 10.7045 48.081 11.1553 48.081 11.6364V12.4091C48.081 13.0682 48.1946 13.6269 48.4219 14.0852C48.6529 14.5398 48.973 14.8864 49.3821 15.125C49.7912 15.3598 50.2666 15.4773 50.8082 15.4773C51.1605 15.4773 51.4787 15.428 51.7628 15.3295C52.0507 15.2273 52.2988 15.0758 52.5071 14.875C52.7154 14.6705 52.8764 14.4167 52.9901 14.1136L54.2855 14.4773C54.1491 14.9167 53.92 15.303 53.598 15.6364C53.276 15.9659 52.8783 16.2235 52.4048 16.4091C51.9313 16.5909 51.3991 16.6818 50.8082 16.6818ZM56.4616 16.5V7.77273H57.7571V9.09091H57.848C58.0071 8.65909 58.295 8.30871 58.7116 8.03977C59.1283 7.77083 59.598 7.63636 60.1207 7.63636C60.2192 7.63636 60.3423 7.63826 60.4901 7.64205C60.6378 7.64583 60.7495 7.65152 60.8253 7.65909V9.02273C60.7798 9.01136 60.6757 8.99432 60.5128 8.97159C60.3537 8.94508 60.1851 8.93182 60.0071 8.93182C59.5829 8.93182 59.2041 9.02083 58.8707 9.19886C58.5412 9.37311 58.2798 9.61553 58.0866 9.92614C57.8973 10.233 57.8026 10.5833 57.8026 10.9773V16.5H56.4616ZM63.7557 11.25V16.5H62.4148V7.77273H63.7102V9.13636H63.8239C64.0284 8.69318 64.339 8.33712 64.7557 8.06818C65.1723 7.79545 65.7102 7.65909 66.3693 7.65909C66.9602 7.65909 67.4773 7.7803 67.9205 8.02273C68.3636 8.26136 68.7083 8.625 68.9545 9.11364C69.2008 9.59848 69.3239 10.2121 69.3239 10.9545V16.5H67.983V11.0455C67.983 10.3598 67.8049 9.82576 67.4489 9.44318C67.0928 9.05682 66.6042 8.86364 65.983 8.86364C65.5549 8.86364 65.1723 8.95644 64.8352 9.14205C64.5019 9.32765 64.2386 9.59848 64.0455 9.95455C63.8523 10.3106 63.7557 10.7424 63.7557 11.25Z" fill="#0B3681"/>
</svg>
