<svg width="93" height="22" viewBox="0 0 93 22" fill="none" xmlns="http://www.w3.org/2000/svg">
<rect width="93" height="22" rx="4" fill="#92FFBC"/>
<path d="M4 15.2546C4 14.791 4.11932 14.3648 4.35795 13.9762C4.59659 13.5875 4.91364 13.291 5.30909 13.0864C6.15455 12.6637 7.01364 12.3466 7.88636 12.1353C8.75909 11.9239 9.64545 11.8182 10.5455 11.8182C11.4455 11.8182 12.3318 11.9239 13.2045 12.1353C14.0773 12.3466 14.9364 12.6637 15.7818 13.0864C16.1773 13.291 16.4943 13.5875 16.733 13.9762C16.9716 14.3648 17.0909 14.791 17.0909 15.2546V15.9091C17.0909 16.3591 16.9307 16.7444 16.6102 17.0648C16.2898 17.3853 15.9045 17.5455 15.4545 17.5455H5.63636C5.18636 17.5455 4.80114 17.3853 4.48068 17.0648C4.16023 16.7444 4 16.3591 4 15.9091V15.2546ZM20.3636 17.5455H18.2773C18.4273 17.3 18.5398 17.0375 18.6148 16.758C18.6898 16.4785 18.7273 16.1955 18.7273 15.9091V15.091C18.7273 14.491 18.5602 13.9148 18.2261 13.3625C17.892 12.8103 17.4182 12.3364 16.8045 11.941C17.5 12.0228 18.1545 12.1625 18.7682 12.3603C19.3818 12.558 19.9545 12.8 20.4864 13.0864C20.9773 13.3591 21.3523 13.6625 21.6114 13.9966C21.8705 14.3307 22 14.6955 22 15.091V15.9091C22 16.3591 21.8398 16.7444 21.5193 17.0648C21.1989 17.3853 20.8136 17.5455 20.3636 17.5455ZM10.5455 11C9.64545 11 8.875 10.6796 8.23409 10.0387C7.59318 9.39777 7.27273 8.62732 7.27273 7.72732C7.27273 6.82732 7.59318 6.05686 8.23409 5.41595C8.875 4.77504 9.64545 4.45459 10.5455 4.45459C11.4455 4.45459 12.2159 4.77504 12.8568 5.41595C13.4977 6.05686 13.8182 6.82732 13.8182 7.72732C13.8182 8.62732 13.4977 9.39777 12.8568 10.0387C12.2159 10.6796 11.4455 11 10.5455 11ZM18.7273 7.72732C18.7273 8.62732 18.4068 9.39777 17.7659 10.0387C17.125 10.6796 16.3545 11 15.4545 11C15.3045 11 15.1136 10.983 14.8818 10.9489C14.65 10.9148 14.4591 10.8773 14.3091 10.8364C14.6773 10.4 14.9602 9.91595 15.158 9.38413C15.3557 8.85232 15.4545 8.30004 15.4545 7.72732C15.4545 7.15459 15.3557 6.60232 15.158 6.0705C14.9602 5.53868 14.6773 5.05459 14.3091 4.61823C14.5 4.55004 14.6909 4.50573 14.8818 4.48527C15.0727 4.46482 15.2636 4.45459 15.4545 4.45459C16.3545 4.45459 17.125 4.77504 17.7659 5.41595C18.4068 6.05686 18.7273 6.82732 18.7273 7.72732ZM5.63636 15.9091H15.4545V15.2546C15.4545 15.1046 15.417 14.9682 15.342 14.8455C15.267 14.7228 15.1682 14.6273 15.0455 14.5591C14.3091 14.191 13.5659 13.9148 12.8159 13.7307C12.0659 13.5466 11.3091 13.4546 10.5455 13.4546C9.78182 13.4546 9.025 13.5466 8.275 13.7307C7.525 13.9148 6.78182 14.191 6.04545 14.5591C5.92273 14.6273 5.82386 14.7228 5.74886 14.8455C5.67386 14.9682 5.63636 15.1046 5.63636 15.2546V15.9091ZM10.5455 9.36368C10.9955 9.36368 11.3807 9.20345 11.7011 8.883C12.0216 8.56254 12.1818 8.17732 12.1818 7.72732C12.1818 7.27732 12.0216 6.89209 11.7011 6.57164C11.3807 6.25118 10.9955 6.09095 10.5455 6.09095C10.0955 6.09095 9.71023 6.25118 9.38977 6.57164C9.06932 6.89209 8.90909 7.27732 8.90909 7.72732C8.90909 8.17732 9.06932 8.56254 9.38977 8.883C9.71023 9.20345 10.0955 9.36368 10.5455 9.36368Z" fill="#0B3681"/>
<path d="M27.4091 4.86364H29.0909L33.0455 14.5227H33.1818L37.1364 4.86364H38.8182V16.5H37.5V7.65909H37.3864L33.75 16.5H32.4773L28.8409 7.65909H28.7273V16.5H27.4091V4.86364ZM45.1207 16.6818C44.2798 16.6818 43.5545 16.4962 42.9446 16.125C42.3385 15.75 41.8707 15.2273 41.5412 14.5568C41.2154 13.8826 41.0526 13.0985 41.0526 12.2045C41.0526 11.3106 41.2154 10.5227 41.5412 9.84091C41.8707 9.1553 42.3291 8.62121 42.9162 8.23864C43.5071 7.85227 44.1965 7.65909 44.9844 7.65909C45.4389 7.65909 45.8878 7.73485 46.331 7.88636C46.7741 8.03788 47.1776 8.28409 47.5412 8.625C47.9048 8.96212 48.1946 9.40909 48.4105 9.96591C48.6264 10.5227 48.7344 11.2083 48.7344 12.0227V12.5909H42.0071V11.4318H47.3707C47.3707 10.9394 47.2723 10.5 47.0753 10.1136C46.8821 9.72727 46.6056 9.42235 46.2457 9.19886C45.8897 8.97538 45.4692 8.86364 44.9844 8.86364C44.4503 8.86364 43.9882 8.99621 43.598 9.26136C43.2116 9.52273 42.9143 9.86364 42.706 10.2841C42.4976 10.7045 42.3935 11.1553 42.3935 11.6364V12.4091C42.3935 13.0682 42.5071 13.6269 42.7344 14.0852C42.9654 14.5398 43.2855 14.8864 43.6946 15.125C44.1037 15.3598 44.5791 15.4773 45.1207 15.4773C45.473 15.4773 45.7912 15.428 46.0753 15.3295C46.3632 15.2273 46.6113 15.0758 46.8196 14.875C47.0279 14.6705 47.1889 14.4167 47.3026 14.1136L48.598 14.4773C48.4616 14.9167 48.2325 15.303 47.9105 15.6364C47.5885 15.9659 47.1908 16.2235 46.7173 16.4091C46.2438 16.5909 45.7116 16.6818 45.1207 16.6818ZM50.7741 16.5V7.77273H52.0696V9.13636H52.1832C52.3651 8.67045 52.6586 8.30871 53.0639 8.05114C53.4692 7.78977 53.956 7.65909 54.5241 7.65909C55.0999 7.65909 55.5791 7.78977 55.9616 8.05114C56.348 8.30871 56.6491 8.67045 56.8651 9.13636H56.956C57.1795 8.68561 57.5147 8.32765 57.9616 8.0625C58.4086 7.79356 58.9446 7.65909 59.5696 7.65909C60.3499 7.65909 60.9882 7.90341 61.4844 8.39205C61.9806 8.87689 62.2287 9.63258 62.2287 10.6591V16.5H60.8878V10.6591C60.8878 10.0152 60.7116 9.55492 60.3594 9.27841C60.0071 9.00189 59.5923 8.86364 59.1151 8.86364C58.5014 8.86364 58.026 9.04924 57.6889 9.42045C57.3518 9.78788 57.1832 10.2538 57.1832 10.8182V16.5H55.8196V10.5227C55.8196 10.0265 55.6586 9.62689 55.3366 9.32386C55.0147 9.01705 54.5999 8.86364 54.0923 8.86364C53.7438 8.86364 53.4181 8.95644 53.1151 9.14205C52.8158 9.32765 52.5734 9.58523 52.3878 9.91477C52.206 10.2405 52.1151 10.6174 52.1151 11.0455V16.5H50.7741ZM64.8622 16.5V4.86364H66.2031V9.15909H66.3168C66.4152 9.00758 66.5516 8.81439 66.7259 8.57955C66.9039 8.34091 67.1577 8.12879 67.4872 7.94318C67.8205 7.75379 68.2713 7.65909 68.8395 7.65909C69.5743 7.65909 70.2221 7.8428 70.7827 8.21023C71.3433 8.57765 71.7808 9.09848 72.0952 9.77273C72.4096 10.447 72.5668 11.2424 72.5668 12.1591C72.5668 13.0833 72.4096 13.8845 72.0952 14.5625C71.7808 15.2367 71.3452 15.7595 70.7884 16.1307C70.2315 16.4981 69.5895 16.6818 68.8622 16.6818C68.3016 16.6818 67.8527 16.589 67.5156 16.4034C67.1785 16.214 66.919 16 66.7372 15.7614C66.5554 15.5189 66.4152 15.3182 66.3168 15.1591H66.1577V16.5H64.8622ZM66.1804 12.1364C66.1804 12.7955 66.277 13.3769 66.4702 13.8807C66.6634 14.3807 66.9455 14.7727 67.3168 15.0568C67.688 15.3371 68.1425 15.4773 68.6804 15.4773C69.241 15.4773 69.7088 15.3295 70.0838 15.0341C70.4626 14.7348 70.7467 14.3333 70.9361 13.8295C71.1293 13.322 71.2259 12.7576 71.2259 12.1364C71.2259 11.5227 71.1312 10.9697 70.9418 10.4773C70.7562 9.98106 70.474 9.58902 70.0952 9.30114C69.7202 9.00947 69.2486 8.86364 68.6804 8.86364C68.1349 8.86364 67.6766 9.00189 67.3054 9.27841C66.9342 9.55114 66.6539 9.93371 66.4645 10.4261C66.2751 10.9148 66.1804 11.4848 66.1804 12.1364ZM78.277 16.6818C77.4361 16.6818 76.7107 16.4962 76.1009 16.125C75.4948 15.75 75.027 15.2273 74.6974 14.5568C74.3717 13.8826 74.2088 13.0985 74.2088 12.2045C74.2088 11.3106 74.3717 10.5227 74.6974 9.84091C75.027 9.1553 75.4853 8.62121 76.0724 8.23864C76.6634 7.85227 77.3527 7.65909 78.1406 7.65909C78.5952 7.65909 79.044 7.73485 79.4872 7.88636C79.9304 8.03788 80.3338 8.28409 80.6974 8.625C81.0611 8.96212 81.3509 9.40909 81.5668 9.96591C81.7827 10.5227 81.8906 11.2083 81.8906 12.0227V12.5909H75.1634V11.4318H80.527C80.527 10.9394 80.4285 10.5 80.2315 10.1136C80.0384 9.72727 79.7618 9.42235 79.402 9.19886C79.0459 8.97538 78.6255 8.86364 78.1406 8.86364C77.6065 8.86364 77.1444 8.99621 76.7543 9.26136C76.3679 9.52273 76.0705 9.86364 75.8622 10.2841C75.6539 10.7045 75.5497 11.1553 75.5497 11.6364V12.4091C75.5497 13.0682 75.6634 13.6269 75.8906 14.0852C76.1217 14.5398 76.4418 14.8864 76.8509 15.125C77.2599 15.3598 77.7353 15.4773 78.277 15.4773C78.6293 15.4773 78.9474 15.428 79.2315 15.3295C79.5194 15.2273 79.7675 15.0758 79.9759 14.875C80.1842 14.6705 80.3452 14.4167 80.4588 14.1136L81.7543 14.4773C81.6179 14.9167 81.3887 15.303 81.0668 15.6364C80.7448 15.9659 80.3471 16.2235 79.8736 16.4091C79.4001 16.5909 78.8679 16.6818 78.277 16.6818ZM83.9304 16.5V7.77273H85.2259V9.09091H85.3168C85.4759 8.65909 85.7637 8.30871 86.1804 8.03977C86.5971 7.77083 87.0668 7.63636 87.5895 7.63636C87.688 7.63636 87.8111 7.63826 87.9588 7.64205C88.1065 7.64583 88.2183 7.65152 88.294 7.65909V9.02273C88.2486 9.01136 88.1444 8.99432 87.9815 8.97159C87.8224 8.94508 87.6539 8.93182 87.4759 8.93182C87.0516 8.93182 86.6728 9.02083 86.3395 9.19886C86.0099 9.37311 85.7486 9.61553 85.5554 9.92614C85.366 10.233 85.2713 10.5833 85.2713 10.9773V16.5H83.9304Z" fill="#0B3681"/>
</svg>
