<svg width="63" height="24" viewBox="0 0 63 24" fill="none" xmlns="http://www.w3.org/2000/svg">
<rect width="63" height="24" rx="4" fill="#2A3647"/>
<path d="M10 12C9.0375 12 8.21354 11.6573 7.52813 10.9719C6.84271 10.2865 6.5 9.4625 6.5 8.5C6.5 7.5375 6.84271 6.71354 7.52813 6.02813C8.21354 5.34271 9.0375 5 10 5C10.9625 5 11.7865 5.34271 12.4719 6.02813C13.1573 6.71354 13.5 7.5375 13.5 8.5C13.5 9.4625 13.1573 10.2865 12.4719 10.9719C11.7865 11.6573 10.9625 12 10 12ZM3 17.25V16.55C3 16.0542 3.1276 15.5984 3.38281 15.1828C3.63802 14.7672 3.97708 14.45 4.4 14.2312C5.30417 13.7792 6.22292 13.4401 7.15625 13.2141C8.08958 12.988 9.0375 12.875 10 12.875C10.9625 12.875 11.9104 12.988 12.8438 13.2141C13.7771 13.4401 14.6958 13.7792 15.6 14.2312C16.0229 14.45 16.362 14.7672 16.6172 15.1828C16.8724 15.5984 17 16.0542 17 16.55V17.25C17 17.7312 16.8286 18.1432 16.4859 18.4859C16.1432 18.8286 15.7312 19 15.25 19H4.75C4.26875 19 3.85677 18.8286 3.51406 18.4859C3.17135 18.1432 3 17.7312 3 17.25ZM4.75 17.25H15.25V16.55C15.25 16.3896 15.2099 16.2437 15.1297 16.1125C15.0495 15.9812 14.9438 15.8792 14.8125 15.8063C14.025 15.4125 13.2302 15.1172 12.4281 14.9203C11.626 14.7234 10.8167 14.625 10 14.625C9.18333 14.625 8.37396 14.7234 7.57188 14.9203C6.76979 15.1172 5.975 15.4125 5.1875 15.8063C5.05625 15.8792 4.95052 15.9812 4.87031 16.1125C4.7901 16.2437 4.75 16.3896 4.75 16.55V17.25ZM10 10.25C10.4812 10.25 10.8932 10.0786 11.2359 9.73594C11.5786 9.39323 11.75 8.98125 11.75 8.5C11.75 8.01875 11.5786 7.60677 11.2359 7.26406C10.8932 6.92135 10.4812 6.75 10 6.75C9.51875 6.75 9.10677 6.92135 8.76406 7.26406C8.42135 7.60677 8.25 8.01875 8.25 8.5C8.25 8.98125 8.42135 9.39323 8.76406 9.73594C9.10677 10.0786 9.51875 10.25 10 10.25Z" fill="#29ABE2"/>
<path d="M22.4091 17.5V5.86364H26.3409C27.2538 5.86364 28 6.02841 28.5795 6.35795C29.1629 6.68371 29.5947 7.125 29.875 7.68182C30.1553 8.23864 30.2955 8.85985 30.2955 9.54545C30.2955 10.2311 30.1553 10.8542 29.875 11.4148C29.5985 11.9754 29.1705 12.4223 28.5909 12.7557C28.0114 13.0852 27.2689 13.25 26.3636 13.25H23.5455V12H26.3182C26.9432 12 27.4451 11.892 27.8239 11.6761C28.2027 11.4602 28.4773 11.1686 28.6477 10.8011C28.822 10.4299 28.9091 10.0114 28.9091 9.54545C28.9091 9.07955 28.822 8.66288 28.6477 8.29545C28.4773 7.92803 28.2008 7.64015 27.8182 7.43182C27.4356 7.2197 26.928 7.11364 26.2955 7.11364H23.8182V17.5H22.4091ZM32.3835 17.5V8.77273H33.679V10.0909H33.7699C33.929 9.65909 34.2169 9.30871 34.6335 9.03977C35.0502 8.77083 35.5199 8.63636 36.0426 8.63636C36.1411 8.63636 36.2642 8.63826 36.4119 8.64205C36.5597 8.64583 36.6714 8.65152 36.7472 8.65909V10.0227C36.7017 10.0114 36.5975 9.99432 36.4347 9.97159C36.2756 9.94508 36.107 9.93182 35.929 9.93182C35.5047 9.93182 35.1259 10.0208 34.7926 10.1989C34.4631 10.3731 34.2017 10.6155 34.0085 10.9261C33.8191 11.233 33.7244 11.5833 33.7244 11.9773V17.5H32.3835ZM41.6165 17.6818C40.8286 17.6818 40.1373 17.4943 39.5426 17.1193C38.9517 16.7443 38.4896 16.2197 38.1562 15.5455C37.8267 14.8712 37.6619 14.0833 37.6619 13.1818C37.6619 12.2727 37.8267 11.4792 38.1562 10.8011C38.4896 10.1231 38.9517 9.59659 39.5426 9.22159C40.1373 8.84659 40.8286 8.65909 41.6165 8.65909C42.4044 8.65909 43.0938 8.84659 43.6847 9.22159C44.2794 9.59659 44.7415 10.1231 45.071 10.8011C45.4044 11.4792 45.571 12.2727 45.571 13.1818C45.571 14.0833 45.4044 14.8712 45.071 15.5455C44.7415 16.2197 44.2794 16.7443 43.6847 17.1193C43.0938 17.4943 42.4044 17.6818 41.6165 17.6818ZM41.6165 16.4773C42.215 16.4773 42.7074 16.3239 43.0938 16.017C43.4801 15.7102 43.7661 15.3068 43.9517 14.8068C44.1373 14.3068 44.2301 13.7652 44.2301 13.1818C44.2301 12.5985 44.1373 12.0549 43.9517 11.5511C43.7661 11.0473 43.4801 10.6402 43.0938 10.3295C42.7074 10.0189 42.215 9.86364 41.6165 9.86364C41.018 9.86364 40.5256 10.0189 40.1392 10.3295C39.7528 10.6402 39.4669 11.0473 39.2812 11.5511C39.0956 12.0549 39.0028 12.5985 39.0028 13.1818C39.0028 13.7652 39.0956 14.3068 39.2812 14.8068C39.4669 15.3068 39.7528 15.7102 40.1392 16.017C40.5256 16.3239 41.018 16.4773 41.6165 16.4773ZM51.5043 8.77273V9.90909H46.7997V8.77273H51.5043ZM48.2088 17.5V7.56818C48.2088 7.06818 48.3262 6.65151 48.5611 6.31818C48.7959 5.98485 49.1009 5.73485 49.4759 5.56818C49.8509 5.40151 50.2467 5.31818 50.6634 5.31818C50.9929 5.31818 51.2618 5.3447 51.4702 5.39773C51.6785 5.45076 51.8338 5.5 51.9361 5.54545L51.5497 6.70455C51.4815 6.68182 51.3868 6.65341 51.2656 6.61932C51.1482 6.58523 50.9929 6.56818 50.7997 6.56818C50.3565 6.56818 50.0365 6.67992 49.8395 6.90341C49.6463 7.12689 49.5497 7.45455 49.5497 7.88636V17.5H48.2088ZM53.3835 17.5V8.77273H54.7244V17.5H53.3835ZM54.0653 7.31818C53.804 7.31818 53.5786 7.22917 53.3892 7.05114C53.2036 6.87311 53.1108 6.65909 53.1108 6.40909C53.1108 6.15909 53.2036 5.94508 53.3892 5.76705C53.5786 5.58902 53.804 5.5 54.0653 5.5C54.3267 5.5 54.5502 5.58902 54.7358 5.76705C54.9252 5.94508 55.0199 6.15909 55.0199 6.40909C55.0199 6.65909 54.9252 6.87311 54.7358 7.05114C54.5502 7.22917 54.3267 7.31818 54.0653 7.31818ZM58.5213 5.86364V17.5H57.1804V5.86364H58.5213Z" fill="white"/>
</svg>
